Coordinates
nRows=5
nColumns=38

# SIMM Motion File Header:
name Coordinates
datacolumns 38
datarows 5
otherdata 1
range 2.09180000000000010000 2.09580000000000010000

Units are S.I. units (second, meters, Newtons, ...)
Angles are in degrees.

endheader
time	pelvis_tilt	pelvis_list	pelvis_rotation	pelvis_tx	pelvis_ty	pelvis_tz	hip_flexion_r	hip_adduction_r	hip_rotation_r	knee_angle_r	ankle_angle_r	subtalar_angle_r	mtp_angle_r	hip_flexion_l	hip_adduction_l	hip_rotation_l	knee_angle_l	ankle_angle_l	subtalar_angle_l	mtp_angle_l	lumbar_extension	lumbar_bending	lumbar_rotation	arm_flex_r	arm_add_r	arm_rot_r	elbow_flex_r	pro_sup_r	wrist_flex_r	wrist_dev_r	arm_flex_l	arm_add_l	arm_rot_l	elbow_flex_l	pro_sup_l	wrist_flex_l	wrist_dev_l
      2.09180000000000010000	     -3.98280797009617250000	      0.46581225950095612000	      2.35364603328509500000	      0.97669988054491053000	      0.98993999406376509000	     -0.33203393544062987000	    -13.80368229222036000000	      3.59978203244814750000	     -4.60281054908303490000	    -64.32395032476701100000	    -18.60452915755085700000	      0.00000000000008218259	      0.00000000000016749476	     28.33168773281135700000	      7.03410235633651930000	     12.95078991851183400000	     -7.28502533190731060000	      8.52950869729069620000	      0.00000000000001908059	     -0.00000000000001850608	     -4.89943032001898880000	     -0.88092239535646477000	      4.50934348563732890000	    -28.02636915515475400000	    -23.03054178451327500000	      5.18323259980193280000	    104.78958858917271000000	    103.15515919081821000000	      0.00000000000002052275	      0.00000000000003219081	    -51.97986207303254200000	    -22.04090754268172200000	     -4.03591753945650570000	    105.98230432413935000000	    120.63311123870106000000	     -0.00000000000001863295	     -0.00000000000004402309
      2.09280000000000000000	     -3.93269872536730110000	      0.49666147950927625000	      2.36995403584739340000	      0.97662806987049411000	      0.98947182430342351000	     -0.33205148894270975000	    -13.57474785066984600000	      3.48307428114882180000	     -4.73017159759724230000	    -65.12913991530935200000	    -18.45726560781032800000	      0.00000000000008253480	      0.00000000000016814235	     28.22417130298009300000	      7.10700045959396750000	     12.82294120103111200000	     -7.40873292871789690000	      8.59792540763653430000	      0.00000000000001914510	     -0.00000000000001854636	     -4.98969301711929700000	     -0.92949006772306419000	      4.40659293767293820000	    -28.09631757220600800000	    -23.03279775307316200000	      5.18797280822591670000	    104.54998741264592000000	    103.12357256791860000000	      0.00000000000002063396	      0.00000000000003233257	    -51.90194209504041800000	    -22.01406195314039800000	     -4.08089978665494700000	    105.96390470133214000000	    120.51863420325756000000	     -0.00000000000001873020	     -0.00000000000004422801
      2.09379999999999990000	     -3.88553545702510480000	      0.52930182643378365000	      2.38878291120592130000	      0.97655544931598770000	      0.98898959638662109000	     -0.33207408819539380000	    -13.34271694451888900000	      3.36360995385820160000	     -4.85821267592240600000	    -65.93245180540095900000	    -18.30585454104207700000	      0.00000000000008288993	      0.00000000000016878874	     28.12056800620364100000	      7.18337666572673330000	     12.69851021198216600000	     -7.54027653452898770000	      8.66100387314510730000	      0.00000000000001920427	     -0.00000000000001858787	     -5.07665874650873940000	     -0.97972923518974508000	      4.30049231534598860000	    -28.16801239619839900000	    -23.03406985982506700000	      5.19202573265553100000	    104.30825715315217000000	    103.09638093540511000000	      0.00000000000002074457	      0.00000000000003247450	    -51.82319157809347800000	    -21.98915167027735200000	     -4.12466510820962460000	    105.94491996512808000000	    120.40187980831168000000	     -0.00000000000001882676	     -0.00000000000004443099
      2.09480000000000020000	     -3.84121137470328880000	      0.56375700915002069000	      2.40980355654982550000	      0.97648202077264612000	      0.98849351706933342000	     -0.33210122102569978000	    -13.10768457175128900000	      3.24128037011435890000	     -4.98670738299651100000	    -66.73393020915649700000	    -18.15027794201710900000	      0.00000000000008324269	      0.00000000000016943417	     28.02068401628255500000	      7.26305001086393440000	     12.57758697381703300000	     -7.67930478584027300000	      8.71797348129517860000	      0.00000000000001927050	     -0.00000000000001862721	     -5.16045849624474770000	     -1.03167728806597920000	      4.19135384726689430000	    -28.24140545783976800000	    -23.03437935078952800000	      5.19539757596493420000	    104.06442381790870000000	    103.07359802483914000000	      0.00000000000002085446	      0.00000000000003261736	    -51.74360440546864500000	    -21.96618711834193100000	     -4.16720806467435970000	    105.92537628466509000000	    120.28308010615036000000	     -0.00000000000001892341	     -0.00000000000004463347
      2.09580000000000010000	     -3.79960429192115170000	      0.59997999209095310000	      2.43314270615787230000	      0.97640776038058863000	      0.98798375196864052000	     -0.33213296783501373000	    -12.86983759017654800000	      3.11615277809067370000	     -5.11584093950032410000	    -67.53347102799813200000	    -17.99056149376998400000	      0.00000000000008359131	      0.00000000000017008012	     27.92438814706227700000	      7.34598595587895890000	     12.46017243085709900000	     -7.82564145145014840000	      8.76837481471120130000	      0.00000000000001934773	     -0.00000000000001866413	     -5.24124448692005010000	     -1.08527163756110650000	      4.07904778021620020000	    -28.31643650688162900000	    -23.03374279107159900000	      5.19809828849540880000	    103.81852833660356000000	    103.05521540846395000000	      0.00000000000002096524	      0.00000000000003276188	    -51.66320839694223800000	    -21.94517993890381600000	     -4.20853952563149750000	    105.90532960363514000000	    120.16246435634532000000	     -0.00000000000001902013	     -0.00000000000004483639
